<?xml version="1.0" encoding="UTF-8" standalone="no"?>
<svg
   xmlns:dc="http://purl.org/dc/elements/1.1/"
   xmlns:cc="http://creativecommons.org/ns#"
   xmlns:rdf="http://www.w3.org/1999/02/22-rdf-syntax-ns#"
   xmlns:svg="http://www.w3.org/2000/svg"
   xmlns="http://www.w3.org/2000/svg"
   xmlns:sodipodi="http://sodipodi.sourceforge.net/DTD/sodipodi-0.dtd"
   xmlns:inkscape="http://www.inkscape.org/namespaces/inkscape"
   width="600"
   height="600"
   viewBox="0 0 60 60"
   version="1.1"
   id="svg8"
   inkscape:version="1.0.1 (3bc2e813f5, 2020-09-07)"
   sodipodi:docname="map1.svg">
  <defs
     id="defs2" />
  <sodipodi:namedview
     id="base"
     pagecolor="#ffffff"
     bordercolor="#666666"
     borderopacity="1.0"
     inkscape:pageopacity="0.0"
     inkscape:pageshadow="2"
     inkscape:zoom="1.5717075"
     inkscape:cx="251.68602"
     inkscape:cy="219.96233"
     inkscape:document-units="px"
     inkscape:current-layer="layer1"
     showgrid="true"
     units="px"
     inkscape:window-width="1920"
     inkscape:window-height="977"
     inkscape:window-x="-4"
     inkscape:window-y="-4"
     inkscape:window-maximized="1"
     showguides="false"
     inkscape:document-rotation="0">
    <inkscape:grid
       type="xygrid"
       id="grid833" />
  </sodipodi:namedview>
  <metadata
     id="metadata5">
    <rdf:RDF>
      <cc:Work
         rdf:about="">
        <dc:format>image/svg+xml</dc:format>
        <dc:type
           rdf:resource="http://purl.org/dc/dcmitype/StillImage" />
        <dc:title />
      </cc:Work>
    </rdf:RDF>
  </metadata>
  <g
     inkscape:label="Layer 1"
     inkscape:groupmode="layer"
     id="layer1"
     transform="translate(0,-232.88542)">
    <path
       style="fill:none;fill-opacity:1;fill-rule:nonzero;stroke:#c0e2fc;stroke-width:1.00045;stroke-linecap:round;stroke-linejoin:round;stroke-miterlimit:4;stroke-dasharray:none;stroke-opacity:1"
       id="loop4"
       sodipodi:type="arc"
       sodipodi:cx="29.999142"
       sodipodi:cy="262.9216"
       sodipodi:rx="29.498919"
       sodipodi:ry="29.497967"
       sodipodi:start="0.19198622"
       sodipodi:end="0"
       d="M 58.956082,268.55008 A 29.498919,29.497967 0 0 1 25.766264,292.1143 29.498919,29.497967 0 0 1 0.63603033,260.09435 29.498919,29.497967 0 0 1 31.414445,233.4576 29.498919,29.497967 0 0 1 59.49806,262.9216"
       sodipodi:arc-type="arc"
       sodipodi:open="true"
       inkscape:label="#loop4" />
    <path
       style="fill:none;fill-opacity:1;fill-rule:nonzero;stroke:#c0e2fc;stroke-width:0.998887;stroke-linecap:round;stroke-linejoin:round;stroke-miterlimit:4;stroke-dasharray:none;stroke-opacity:1"
       id="loop3"
       sodipodi:type="arc"
       sodipodi:cx="30.141792"
       sodipodi:cy="263.22562"
       sodipodi:rx="24.249861"
       sodipodi:ry="24.249086"
       sodipodi:start="0.19198622"
       sodipodi:end="0"
       d="M 53.946115,267.85256 A 24.249861,24.249086 0 0 1 26.662116,287.22376 24.249861,24.249086 0 0 1 6.0035731,260.90144 24.249861,24.249086 0 0 1 31.305255,239.00446 24.249861,24.249086 0 0 1 54.391653,263.22562"
       sodipodi:arc-type="arc"
       sodipodi:open="true"
       inkscape:label="#loop3" />
    <path
       style="fill:none;fill-opacity:1;fill-rule:nonzero;stroke:#c0e2fc;stroke-width:0.993809;stroke-linecap:round;stroke-linejoin:round;stroke-miterlimit:4;stroke-dasharray:none;stroke-opacity:1"
       id="loop2"
       sodipodi:type="arc"
       sodipodi:cx="29.86059"
       sodipodi:cy="263.06598"
       sodipodi:rx="19.252554"
       sodipodi:ry="19.251951"
       sodipodi:start="0.19198622"
       sodipodi:end="0"
       d="M 48.75942,266.73942 A 19.252554,19.251951 0 0 1 27.097991,282.1187 19.252554,19.251951 0 0 1 10.696671,261.22076 19.252554,19.251951 0 0 1 30.784291,243.8362 19.252554,19.251951 0 0 1 49.113144,263.06598"
       sodipodi:arc-type="arc"
       sodipodi:open="true"
       inkscape:label="#loop2" />
    <path
       style="fill:none;fill-opacity:1;fill-rule:nonzero;stroke:#c0e2fc;stroke-width:0.985405;stroke-linecap:round;stroke-linejoin:round;stroke-miterlimit:4;stroke-dasharray:none;stroke-opacity:1"
       id="loop1"
       sodipodi:type="arc"
       sodipodi:cx="29.579432"
       sodipodi:cy="262.90631"
       sodipodi:rx="14.256908"
       sodipodi:ry="14.25648"
       sodipodi:start="0.19198622"
       sodipodi:end="0"
       d="M 43.5744,265.62658 A 14.256908,14.25648 0 0 1 27.53367,277.01526 14.256908,14.25648 0 0 1 15.388159,261.53989 14.256908,14.25648 0 0 1 30.263451,248.66625 14.256908,14.25648 0 0 1 43.83634,262.90631"
       sodipodi:arc-type="arc"
       sodipodi:open="true"
       inkscape:label="#loop1" />
  </g>
</svg>
